<svg id="Group_45" data-name="Group 45" xmlns="http://www.w3.org/2000/svg" width="69.373" height="69.373" viewBox="0 0 69.373 69.373">
  <g id="facebook-logo_1_" data-name="facebook-logo (1)" transform="translate(25.558 14.605)">
    <path id="Path_63" data-name="Path 63" d="M138.072,13.159V9.7a7.624,7.624,0,0,1,.072-1.206,2.342,2.342,0,0,1,.329-.841,1.344,1.344,0,0,1,.828-.573,5.9,5.9,0,0,1,1.524-.159h3.46V0h-5.532q-4.8,0-6.9,2.278t-2.1,6.714v4.167h-4.143V20.08h4.143V40.16h8.31V20.08H143.6l.731-6.921Z" transform="translate(-125.619)" fill="#fff"/>
  </g>
  <g id="Ellipse_16" data-name="Ellipse 16" fill="none" stroke="#fff" stroke-width="1">
    <circle cx="34.686" cy="34.686" r="34.686" stroke="none"/>
    <circle cx="34.686" cy="34.686" r="34.186" fill="none"/>
  </g>
</svg>
