<svg id="Group_47" data-name="Group 47" xmlns="http://www.w3.org/2000/svg" width="69.373" height="69.373" viewBox="0 0 69.373 69.373">
  <g id="linkedin-logo_1_" data-name="linkedin-logo (1)" transform="translate(20.082 18.257)">
    <path id="LinkedIn" d="M30.976,28.808V40.956H24.337V29.622c0-2.847-.96-4.79-3.363-4.79a3.662,3.662,0,0,0-3.407,2.576,5.091,5.091,0,0,0-.22,1.717V40.956H10.705s.089-19.2,0-21.186h6.641v3c-.013.022-.031.047-.044.068h.044v-.068a6.546,6.546,0,0,1,5.985-3.5C27.7,19.273,30.976,22.3,30.976,28.808ZM3.758,9.558A3.559,3.559,0,0,0,0,13.218,3.539,3.539,0,0,0,3.67,16.88h.044a3.559,3.559,0,0,0,3.756-3.662A3.545,3.545,0,0,0,3.758,9.558ZM.394,40.956H7.033V19.77H.394Z" transform="translate(0 -9.558)" fill="#fff"/>
  </g>
  <g id="Ellipse_17" data-name="Ellipse 17" fill="none" stroke="#fff" stroke-width="1">
    <circle cx="34.686" cy="34.686" r="34.686" stroke="none"/>
    <circle cx="34.686" cy="34.686" r="34.186" fill="none"/>
  </g>
</svg>
