<svg xmlns="http://www.w3.org/2000/svg" width="23" height="23" viewBox="0 0 23 23">
  <path id="linkedin" d="M21.341,0H1.659A1.659,1.659,0,0,0,0,1.659V21.341A1.659,1.659,0,0,0,1.659,23H21.341A1.659,1.659,0,0,0,23,21.341V1.659A1.659,1.659,0,0,0,21.341,0ZM8.158,17.385h-2.8V8.959h2.8Zm-1.4-9.577H6.74A1.46,1.46,0,1,1,6.777,4.9a1.46,1.46,0,1,1-.019,2.911Zm11.5,9.577h-2.8V12.877c0-1.133-.406-1.905-1.419-1.905A1.533,1.533,0,0,0,12.6,12a1.918,1.918,0,0,0-.092.683v4.706h-2.8s.037-7.636,0-8.426h2.8v1.193a2.78,2.78,0,0,1,2.524-1.391c1.843,0,3.224,1.2,3.224,3.792Zm0,0" transform="translate(0)" fill="#222"/>
</svg>
