<svg id="MPR_Logo" data-name="MPR Logo" xmlns="http://www.w3.org/2000/svg" width="97" height="33" viewBox="0 0 97 33">
  <path id="Shape" d="M0,31.042c3.27-.365,3.567-1.366,3.651-4.779L4.076,9.24c.042-1.412.127-2.914.127-4.279,0-2.913-.466-3.369-3.269-3.6V0C2.377.044,4.459.136,5.478.136S7.771.091,9.47,0l9.98,24.942L29.77,0c1.445.091,2.93.136,4.2.136,1.146,0,2.548-.045,4.247-.136V1.365c-2.081,0-3.1.728-3.1,3.549,0,1.822.042,4.78.085,7.056l.254,15.067c.043,3.275.892,3.868,3.527,4v1.364c-2.081-.044-4.545-.134-6.159-.134s-4.076.09-6.2.134V31.042c2.93-.226,3.568-.637,3.568-4.416,0-1.592-.042-3.413-.085-5.188L29.854,4.1H29.77L18.262,32.726H17.028L5.9,5.734H5.817V27.627c0,2.276.722,3.324,3.482,3.415v1.364c-1.528-.044-3.015-.134-4.671-.134s-3.142.09-4.628.134Z" transform="translate(0 0)" fill="#fff"/>
  <path id="Shape-2" data-name="Shape" d="M0,32.405H0V31.042a3.647,3.647,0,0,0,2.8-.905,4.023,4.023,0,0,0,.726-2.782V5.052A4.021,4.021,0,0,0,2.8,2.27a3.648,3.648,0,0,0-2.8-.9V0C1.326.083,3.36.136,5.31.136,6.436.136,7.579.1,8.686.068S10.934,0,12.058,0c3.922,0,6.866.886,8.751,2.634a8.539,8.539,0,0,1,2.506,6.56,7.583,7.583,0,0,1-2.59,6.212c-1.831,1.495-4.674,2.253-8.452,2.253a33.07,33.07,0,0,1-3.4-.137v9.832A4.021,4.021,0,0,0,9.6,30.137a3.649,3.649,0,0,0,2.8.905V32.4l-.857-.022c-2.817-.076-4.1-.11-5.343-.11s-2.523.035-5.339.11L0,32.405ZM10.7,1.365a7.3,7.3,0,0,0-1.825.182V15.611a14.311,14.311,0,0,0,2.8.319c4.059,0,6.116-2.113,6.116-6.281C17.795,5.828,15.937,1.365,10.7,1.365Z" transform="translate(43.149 0)" fill="#fff"/>
  <path id="Shape-3" data-name="Shape" d="M26.118,33c-2.856,0-4.832-.532-6.409-1.724-1.484-1.122-2.667-2.852-3.956-5.786L14.1,21.711c-1.788-4.065-2.375-4.369-5.222-4.415V27.355A4.021,4.021,0,0,0,9.6,30.137a3.651,3.651,0,0,0,2.8.905v1.364l-.855-.023c-2.82-.076-4.106-.11-5.345-.11s-2.53.035-5.354.111L0,32.405V31.042a3.65,3.65,0,0,0,2.8-.905,4.02,4.02,0,0,0,.727-2.782V5.052A4.019,4.019,0,0,0,2.8,2.27a3.651,3.651,0,0,0-2.8-.9V0C.792.018,1.531.042,2.246.066,3.311.1,4.317.136,5.265.136,6.644.136,8.058.1,9.425.068S12.209,0,13.59,0c3.425,0,5.993.854,7.632,2.538a8.109,8.109,0,0,1,2.09,5.884,8.316,8.316,0,0,1-1.406,4.608,8.592,8.592,0,0,1-4.494,3.312L22.72,26.81c1.869,3.694,2.869,4.63,5.351,5.007v1.093l-.207.014C27.3,32.961,26.722,33,26.118,33ZM10.7,1.365a7.282,7.282,0,0,0-1.823.182V15.611a14.291,14.291,0,0,0,2.8.319c4.057,0,6.115-2.113,6.115-6.281C17.792,5.828,15.935,1.365,10.7,1.365Z" transform="translate(68.929 0)" fill="#fff"/>
</svg>
