<svg xmlns="http://www.w3.org/2000/svg" width="20" height="20" viewBox="0 0 20 20">
  <g id="phone_2_" data-name="phone (2)" transform="translate(0 0)">
    <g id="Group_860" data-name="Group 860" transform="translate(0 0)">
      <path id="Path_6380" data-name="Path 6380" d="M10.693.024A10.014,10.014,0,0,0,.168,11.859a10.3,10.3,0,0,0,9.277,8.126Q9.718,20,9.99,20a9.968,9.968,0,0,0,7.08-2.928l.295-.295a.417.417,0,0,0,0-.589l-.589-.589a.417.417,0,0,0-.589,0l-.295.295A8.332,8.332,0,1,1,10.58,1.687a8.715,8.715,0,0,1,7.753,8.584v1.4a1.25,1.25,0,0,1-1.25,1.25h-1.25v-.2A1.014,1.014,0,0,0,14.825,11.7a6.429,6.429,0,0,1-2.024-.32,1.034,1.034,0,0,0-1,.206l-1.239.936a7,7,0,0,1-3.08-3.079l.9-1.2A1.027,1.027,0,0,0,8.631,7.2,6.418,6.418,0,0,1,8.31,5.175,1.014,1.014,0,0,0,7.291,4.167H5.185a1.013,1.013,0,0,0-1.019,1A10.66,10.66,0,0,0,14.834,15.833a1.013,1.013,0,0,0,1-1.018v-.232h1.25A2.917,2.917,0,0,0,20,11.667v-1.4A10.157,10.157,0,0,0,10.693.024Z" transform="translate(0 0)" fill="#222"/>
    </g>
  </g>
</svg>
