<svg id="Group_46" data-name="Group 46" xmlns="http://www.w3.org/2000/svg" width="69.372" height="69.373" viewBox="0 0 69.372 69.373">
  <g id="XMLID_798_" transform="translate(21.907 18.256)">
    <path id="XMLID_799_" d="M55.72,3.218A12.991,12.991,0,0,0,46.882,0,14.249,14.249,0,0,0,36.635,3.765a10.874,10.874,0,0,0-3.454,7.711c0,3.5,1.534,6.178,4.1,7.176a1.417,1.417,0,0,0,.516.1,1.136,1.136,0,0,0,1.12-.88c.087-.311.288-1.078.375-1.411a1.283,1.283,0,0,0-.372-1.432,4.428,4.428,0,0,1-1.089-3.118c0-3.83,2.993-7.9,8.539-7.9,4.4,0,7.135,2.384,7.135,6.221a12.435,12.435,0,0,1-1.541,6.314A4.553,4.553,0,0,1,48.2,19.06a2.552,2.552,0,0,1-1.988-.866,2.1,2.1,0,0,1-.4-1.893c.2-.791.464-1.617.723-2.415a14.345,14.345,0,0,0,.919-3.932,2.916,2.916,0,0,0-3.016-3.141c-2.292,0-4.088,2.218-4.088,5.05a7.207,7.207,0,0,0,.563,2.827c-.289,1.166-2,8.1-2.33,9.4-.188.763-1.322,6.789.555,7.27,2.109.54,3.993-5.329,4.185-5.992.155-.539.7-2.579,1.033-3.833A6.553,6.553,0,0,0,48.6,23.1a9.649,9.649,0,0,0,7.613-3.63,14.1,14.1,0,0,0,2.862-8.91A10.053,10.053,0,0,0,55.72,3.218Z" transform="translate(-33.181 0)" fill="#fff"/>
  </g>
  <g id="Ellipse_18" data-name="Ellipse 18" fill="none" stroke="#fff" stroke-width="1">
    <circle cx="34.686" cy="34.686" r="34.686" stroke="none"/>
    <circle cx="34.686" cy="34.686" r="34.186" fill="none"/>
  </g>
</svg>
