<svg id="Group_48" data-name="Group 48" xmlns="http://www.w3.org/2000/svg" width="69.373" height="69.373" viewBox="0 0 69.373 69.373">
  <path id="twitter_1_" data-name="twitter (1)" d="M38.645,51.717a16.518,16.518,0,0,1-4.565,1.251,7.878,7.878,0,0,0,3.485-4.379,15.833,15.833,0,0,1-5.024,1.918,7.922,7.922,0,0,0-13.7,5.418,8.157,8.157,0,0,0,.184,1.807,22.425,22.425,0,0,1-16.33-8.287A7.925,7.925,0,0,0,5.125,60.033a7.824,7.824,0,0,1-3.58-.976v.087a7.959,7.959,0,0,0,6.347,7.785,7.908,7.908,0,0,1-2.077.261,7,7,0,0,1-1.5-.135,8,8,0,0,0,7.4,5.519A15.919,15.919,0,0,1,1.9,75.953,14.838,14.838,0,0,1,0,75.844,22.3,22.3,0,0,0,12.154,79.4C26.733,79.4,34.7,67.323,34.7,56.855c0-.35-.012-.688-.029-1.024A15.805,15.805,0,0,0,38.645,51.717Z" transform="translate(14.605 -29.744)" fill="#fff"/>
  <g id="Ellipse_16" data-name="Ellipse 16" fill="none" stroke="#fff" stroke-width="1">
    <circle cx="34.686" cy="34.686" r="34.686" stroke="none"/>
    <circle cx="34.686" cy="34.686" r="34.186" fill="none"/>
  </g>
</svg>
